<?xml version="1.0" standalone="no"?>
<!DOCTYPE svg PUBLIC "-//W3C//DTD SVG 20010904//EN"
 "http://www.w3.org/TR/2001/REC-SVG-20010904/DTD/svg10.dtd">
<svg version="1.0" xmlns="http://www.w3.org/2000/svg"
 width="256.000000pt" height="257.000000pt" viewBox="0 0 256.000000 257.000000"
 preserveAspectRatio="xMidYMid meet">
<metadata>
Created by potrace 1.14, written by Peter Selinger 2001-2017
</metadata>
<g transform="translate(0.000000,257.000000) scale(0.100000,-0.100000)"
fill="#000000" stroke="none">
<path d="M500 2549 c-148 -39 -288 -145 -362 -275 -28 -51 -32 -54 -68 -54
-29 0 -43 -6 -54 -22 -25 -35 -19 -57 20 -80 l36 -21 -6 -59 c-7 -74 14 -190
49 -259 66 -128 215 -226 363 -236 199 -14 405 88 513 253 35 54 46 65 65 61
29 -5 35 -1 62 45 69 113 185 141 267 64 33 -31 35 -37 35 -95 0 -66 12 -101
34 -101 10 0 15 -25 18 -92 6 -110 33 -185 96 -270 50 -66 94 -98 188 -138 61
-26 81 -29 169 -30 85 0 113 5 183 29 134 47 262 158 334 290 15 27 23 31 57
31 45 0 64 22 59 68 -2 18 -10 28 -28 32 -24 6 -25 9 -31 115 -7 123 -25 184
-77 263 -93 142 -257 212 -447 190 -178 -20 -358 -146 -440 -309 -14 -27 -27
-49 -29 -49 -3 0 -10 17 -16 38 -15 45 -73 109 -117 128 -68 29 -169 14 -233
-35 -60 -46 -58 -48 -52 53 4 76 1 107 -16 162 -50 164 -169 275 -329 309 -90
19 -153 18 -243 -6z m240 -81 c205 -62 315 -275 252 -485 -12 -38 -33 -90 -47
-116 -36 -64 -142 -159 -221 -198 -58 -29 -80 -34 -161 -37 -146 -7 -230 24
-312 113 -99 108 -126 251 -77 408 52 169 211 301 396 331 35 5 128 -3 170
-16z m1460 -321 c113 -54 202 -177 216 -298 14 -130 -42 -281 -143 -383 -172
-174 -442 -193 -599 -42 -116 112 -154 298 -89 441 8 17 18 42 23 55 17 44 98
135 155 174 30 21 83 49 118 62 56 21 77 24 164 21 83 -3 110 -8 155 -30z"/>
<path d="M546 2320 c-71 -28 -115 -60 -136 -101 -42 -81 -71 -265 -48 -308 20
-37 91 -71 148 -71 51 0 147 35 183 68 53 47 105 183 91 239 -13 52 -52 128
-82 161 -37 38 -80 42 -156 12z m-21 -121 l-58 -61 6 -87 c3 -49 13 -105 21
-126 9 -21 14 -40 12 -43 -3 -2 -19 6 -37 18 -105 75 -62 271 76 343 17 9 32
16 34 17 2 0 -22 -27 -54 -61z"/>
<path d="M1978 2035 c-2 -3 -24 -6 -48 -7 -55 -2 -122 -37 -183 -96 -69 -66
-102 -118 -128 -197 -21 -66 -21 -70 -5 -120 20 -64 37 -76 141 -100 44 -10
86 -22 93 -28 8 -6 12 -6 12 3 0 6 -24 34 -54 61 -67 61 -86 100 -86 177 0 55
3 64 39 109 79 98 107 123 139 123 17 0 33 -4 37 -10 3 -5 -6 -32 -20 -61 -22
-43 -28 -73 -36 -180 -7 -89 -7 -135 1 -148 14 -28 68 -35 148 -21 59 11 72
18 110 57 23 24 58 68 78 98 20 30 41 55 45 55 14 0 10 -36 -7 -80 -28 -70 -2
-62 32 10 43 90 45 85 -45 204 -56 74 -107 111 -189 136 -73 23 -67 22 -74 15z"/>
<path d="M282 1331 c-75 -30 -180 -112 -194 -151 -27 -80 -4 -314 38 -387 32
-55 106 -120 174 -151 116 -53 252 -14 357 102 57 63 200 299 209 345 6 28 2
36 -37 72 -53 50 -130 102 -222 152 -67 36 -69 37 -175 36 -75 -1 -120 -6
-150 -18z"/>
<path d="M320 375 c-20 -7 -53 -11 -77 -8 -45 6 -103 -12 -103 -31 0 -24 159
-103 280 -140 61 -19 177 -37 229 -36 18 1 38 -3 45 -8 6 -5 23 -12 38 -16 15
-3 78 -30 140 -59 62 -30 126 -59 141 -65 32 -14 193 -16 201 -4 3 5 31 14 63
21 31 8 64 17 73 22 8 5 64 29 124 52 104 41 142 67 97 67 -11 0 -22 4 -25 8
-6 10 -100 5 -151 -8 -22 -6 -48 -12 -57 -15 -9 -2 -25 -8 -35 -13 -27 -15
-220 -55 -283 -60 -67 -4 -120 16 -219 86 -39 27 -97 60 -128 72 -32 12 -67
26 -78 30 -11 5 -37 14 -58 20 -21 7 -68 32 -104 56 -36 24 -68 44 -72 43 -3
0 -22 -6 -41 -14z"/>
</g>
</svg>
